Coordinates
nRows=149
nColumns=2
inDegrees=yes
endheader
time	ankle_angle_r	
2.75	 -5.340540	
2.8125	 -5.362944	
2.875	 -5.344370	
2.9375	 -5.321375	
3	 -5.313636	
3.0625	 -5.331498	
3.125	 -5.369468	
3.1875	 -5.377836	
3.25	 -5.353979	
3.3125	 -5.331220	
3.375	 -5.324271	
3.4375	 -5.321617	
3.5	 -5.301298	
3.5625	 -5.314343	
3.625	 -5.376684	
3.6875	 -5.398173	
3.75	 -5.378140	
3.8125	 -5.364914	
3.875	 -5.345270	
3.9375	 -5.326124	
4	 -5.329028	
4.0625	 -5.355823	
4.125	 -5.375484	
4.1875	 -5.361263	
4.25	 -5.347222	
4.3125	 -5.342123	
4.375	 -5.333646	
4.4375	 -5.341808	
4.5	 -5.342036	
4.5625	 -5.325191	
4.625	 -5.323226	
4.6875	 -5.332472	
4.75	 -5.347210	
4.8125	 -5.332634	
4.875	 -5.291606	
4.9375	 -5.290224	
5	 -5.301783	
5.0625	 -5.316254	
5.125	 -5.368843	
5.1875	 -5.403815	
5.25	 -5.397259	
5.3125	 -5.379762	
5.375	 -5.370278	
5.4375	 -5.376492	
5.5	 -5.369209	
5.5625	 -5.368752	
5.625	 -5.395047	
5.6875	 -5.405177	
5.75	 -5.414098	
5.8125	 -5.417557	
5.875	 -5.382633	
5.9375	 -5.357575	
6	 -5.360510	
6.0625	 -5.374110	
6.125	 -5.385367	
6.1875	 -5.367869	
6.25	 -5.351726	
6.3125	 -5.342265	
6.375	 -5.320831	
6.4375	 -5.317474	
6.5	 -5.324540	
6.5625	 -5.347829	
6.625	 -5.375576	
6.6875	 -5.358433	
6.75	 -5.355830	
6.8125	 -5.382491	
6.875	 -5.371903	
6.9375	 -5.339278	
7	 -5.319707	
7.0625	 -5.341534	
7.125	 -5.371152	
7.1875	 -5.359732	
7.25	 -5.362982	
7.3125	 -5.370526	
7.375	 -5.342513	
7.4375	 -5.322085	
7.5	 -5.309271	
7.5625	 -5.317940	
7.625	 -5.356093	
7.6875	 -5.367562	
7.75	 -5.368343	
7.8125	 -5.364102	
7.875	 -5.331950	
7.9375	 -5.325344	
8	 -5.342421	
8.0625	 -5.355067	
8.125	 -5.380406	
8.1875	 -5.396129	
8.25	 -5.391933	
8.3125	 -5.368439	
8.375	 -5.336017	
8.4375	 -5.325944	
8.5	 -5.315776	
8.5625	 -5.322446	
8.625	 -5.373619	
8.6875	 -5.396541	
8.75	 -5.368404	
8.8125	 -5.342771	
8.875	 -5.349368	
8.9375	 -5.376763	
9	 -5.378640	
9.0625	 -5.361766	
9.125	 -5.356707	
9.1875	 -5.362866	
9.25	 -5.386485	
9.3125	 -5.378186	
9.375	 -5.329790	
9.4375	 -5.325387	
9.5	 -5.378272	
9.5625	 -5.470221	
9.625	 -5.565344	
9.6875	 -5.607314	
9.75	 -5.594218	
9.8125	 -5.521685	
9.875	 -5.433623	
9.9375	 -5.397079	
10	 -5.391185	
10.0625	 -5.406794	
10.125	 -5.436478	
10.1875	 -5.448217	
10.25	 -5.448044	
10.3125	 -5.424964	
10.375	 -5.386617	
10.4375	 -5.373730	
10.5	 -5.384534	
10.5625	 -5.411116	
10.625	 -5.430013	
10.6875	 -5.422199	
10.75	 -5.415108	
10.8125	 -5.398580	
10.875	 -5.360763	
10.9375	 -5.332153	
11	 -5.327565	
11.0625	 -5.353327	
11.125	 -5.377506	
11.1875	 -5.369473	
11.25	 -5.358855	
11.3125	 -5.344627	
11.375	 -5.313195	
11.4375	 -5.290180	
11.5	 -5.297126	
11.5625	 -5.335196	
11.625	 -5.356842	
11.6875	 -5.338477	
11.75	 -5.335486	
11.8125	 -5.348701	
11.875	 -5.346938	
11.9375	 -5.340965	
12	 -5.324745	
